# xmcd CD database file
# Copyright (C) 1993-1998 Ti Kan
#
# Track frame offsets:
#  150
#  10890
#  23655
#  34485
#  47802
#  61635
#  69955
#  82510
#  95375
#  107502
#  123950
#  135322
#  146517
#  159957
#  171772
#  186080
#  196277
#  212787
#  226060
#  236107
#
# Disc length: 3313 seconds
#
# Revision: 1
# Processed by: cddbd v1.4b41PL1 Copyright (c) Steve Scherf et al.
# Submitted via: CDWizzard Release:4.35
#
DISCID=f50cef14
DTITLE=The Coasters - The Coasters 20 Greatest Hits
DYEAR=1900
DGENRE=
TTITLE0=Charlie Brown
TTITLE1=Searchin'
TTITLE2=Young Blood
TTITLE3=Along Came Jones
TTITLE4=D.W. Washington
TTITLE5=Yakety Yak
TTITLE6=Poison Ivy
TTITLE7=Little Egypt
TTITLE8=Love Potion #9
TTITLE9=One Foot Draggin'
TTITLE10=On Broadway
TTITLE11=Mohair Sam
TTITLE12=The "In" Crowd
TTITLE13=Soul Pad
TTITLE14=Down Home Girl
TTITLE15=Down At Papa Joe's
TTITLE16=Mustang Sally
TTITLE17=Cool Jerk
TTITLE18=Everybody's Woman
TTITLE19=Talkin' 'Bout A Woman
EXTD=
EXTT0=
EXTT1=
EXTT2=
EXTT3=
EXTT4=
EXTT5=
EXTT6=
EXTT7=
EXTT8=
EXTT9=
EXTT10=
EXTT11=
EXTT12=
EXTT13=
EXTT14=
EXTT15=
EXTT16=
EXTT17=
EXTT18=
EXTT19=
PLAYORDER=
